<svg xmlns="http://www.w3.org/2000/svg" viewBox="0 0 256 256"><defs><radialGradient id="g" cx="50%" cy="35%"><stop offset="0" stop-color="#171a20"/><stop offset="1" stop-color="#050608"/></radialGradient></defs><circle cx="128" cy="128" r="126" fill="url(#g)" stroke="#d9b37a" stroke-width="4"/><circle cx="128" cy="103" r="48" fill="#b98b55"/><path d="M80 101c2-45 94-55 98 0-18-14-28-21-48-18-19 2-34 11-50 18Z" fill="#191919"/><circle cx="111" cy="108" r="4" fill="#101114"/><circle cx="145" cy="108" r="4" fill="#101114"/><path d="M114 129c9 6 19 6 28 0" fill="none" stroke="#211719" stroke-width="4" stroke-linecap="round"/><path d="M55 238c6-59 42-82 73-82s67 23 73 82" fill="#242a33"/><path d="M103 164l25 31 25-31" fill="none" stroke="#d9b37a" stroke-width="5" opacity=".85"/><circle cx="128" cy="128" r="119" fill="none" stroke="#ffffff" stroke-opacity=".08" stroke-width="2"/></svg>